<?xml version="1.0" encoding="utf-8"?>
<!-- Generator: Adobe Illustrator 24.3.0, SVG Export Plug-In . SVG Version: 6.00 Build 0)  -->
<svg version="1.1" id="Ebene_1" xmlns="http://www.w3.org/2000/svg" xmlns:xlink="http://www.w3.org/1999/xlink" x="0px" y="0px"
	 viewBox="0 0 150 35" style="enable-background:new 0 0 150 35;" xml:space="preserve">
<style type="text/css">
	.st0{fill:#264DE4;}
	.st1{fill:#2965F1;}
	.st2{fill:#EBEBEB;}
	.st3{fill:#FFFFFF;}
	.st4{fill:#E44D26;}
	.st5{fill:#F16529;}
</style>
<g>
	<polygon id="polygon2989" class="st0" points="50.3,4.95 48.28,27.54 39.21,30.05 30.17,27.54 28.16,4.95 	"/>
	<polygon id="polygon2991" class="st1" points="46.55,26.1 48.28,6.79 39.23,6.79 39.23,28.13 	"/>
	<polygon id="polygon2993" class="st2" points="32.78,15.18 33.02,17.95 39.23,17.95 39.23,15.18 	"/>
	<polygon id="polygon2995" class="st2" points="39.23,9.57 39.22,9.57 32.28,9.57 32.53,12.34 39.23,12.34 	"/>
	<polygon id="polygon2997" class="st2" points="39.23,25.26 39.23,22.37 39.21,22.38 36.13,21.54 35.93,19.33 34.43,19.33 
		33.15,19.33 33.54,23.68 39.21,25.26 	"/>
	<polygon id="polygon3005" class="st3" points="42.63,17.95 42.31,21.54 39.22,22.38 39.22,25.26 44.9,23.68 44.94,23.22 
		45.59,15.92 45.66,15.18 46.16,9.57 39.22,9.57 39.22,12.34 43.12,12.34 42.87,15.18 39.22,15.18 39.22,17.95 	"/>
</g>
<g>
	<path class="st4" d="M2.31,27.55L0.3,4.95h22.14l-2.01,22.59l-9.07,2.51"/>
	<path class="st5" d="M11.36,28.13V6.8h9.05l-1.73,19.28"/>
	<path class="st2" d="M4.41,9.57h6.96v2.77H7.45l0.26,2.84h3.66v2.76h-6.2 M5.29,19.33h2.78l0.2,2.21l3.1,0.83v2.89l-5.69-1.59"/>
	<path class="st3" d="M18.3,9.57h-6.94v2.77h6.69 M17.79,15.18h-6.44v2.77h3.42l-0.32,3.6l-3.09,0.83v2.88l5.67-1.57"/>
</g>
<g>
	<path class="st3" d="M59,8.98v7.06h4.05V8.98h2.71v17.04h-2.71v-7.51H59v7.51H56.3V8.98H59z"/>
	<path class="st3" d="M70.64,11.46h-3.06V8.98h8.85v2.48h-3.09v14.57h-2.71V11.46z"/>
	<path class="st3" d="M88.54,19.45c-0.1-1.92-0.2-4.25-0.18-6.12h-0.08c-0.33,1.87-0.78,3.92-1.19,5.56l-1.77,6.93h-1.85l-1.67-6.75
		c-0.45-1.72-0.91-3.84-1.21-5.74h-0.08c-0.03,1.92-0.13,4.17-0.23,6.2l-0.3,6.5h-2.35l1.14-17.04h2.86l1.64,6.9
		c0.53,2.2,0.96,4,1.29,5.92h0.05c0.3-1.92,0.68-3.69,1.19-5.92l1.59-6.9h2.91l1.01,17.04h-2.45L88.54,19.45z"/>
	<path class="st3" d="M93.86,8.98h2.71v14.77h4.55v2.28h-7.26V8.98z"/>
	<path class="st3" d="M115.46,26.02c-0.35-0.51-0.66-0.86-1.37-1.9c-0.94,1.36-2.35,2.1-3.67,2.1c-2.78,0-3.97-2.48-3.97-4.68
		c0-1.72,0.71-3.49,2.55-5.01l0.03-0.08c-0.66-1.11-1.24-2.35-1.24-3.89c0-1.92,1.06-3.79,3.01-3.79c1.16,0,2.53,0.94,2.53,3.31
		c0,1.77-0.94,3.11-2.91,4.55v0.08c0.58,1.01,1.97,3.21,3.69,5.59c0.86-1.87,1.14-4.4,1.19-5.46h1.09c-0.15,1.82-0.56,4.32-1.7,6.27
		c0.18,0.33,0.71,1.06,2.05,2.91H115.46z M113.53,23.34c-1.82-2.53-3.01-4.35-4.05-6.04c-0.96,0.88-1.9,2.3-1.9,4.17
		c0,1.9,0.96,3.77,2.96,3.77C111.74,25.24,112.8,24.56,113.53,23.34z M108.88,12.47c0,1.29,0.33,2.3,1.04,3.46
		c1.47-1.11,2.35-2.28,2.35-3.79c0-1.19-0.45-2.38-1.67-2.38C109.46,9.76,108.88,10.95,108.88,12.47z"/>
	<path class="st3" d="M130.73,25.74c-0.51,0.25-1.39,0.43-2.5,0.43c-3.89,0-6.12-3.19-6.12-8.45c0-6.55,3.47-8.9,6.5-8.9
		c1.11,0,1.87,0.23,2.23,0.43l-0.51,2.28c-0.4-0.18-0.81-0.33-1.62-0.33c-1.85,0-3.74,1.69-3.74,6.35c0,4.58,1.72,6.22,3.77,6.22
		c0.63,0,1.27-0.13,1.67-0.3L130.73,25.74z"/>
	<path class="st3" d="M132.25,23.14c0.63,0.38,1.74,0.68,2.63,0.68c1.67,0,2.58-0.99,2.58-2.38c0-1.36-0.83-2.15-2.23-3.11
		c-1.9-1.21-3.21-2.91-3.21-4.75c0-2.66,1.8-4.75,4.98-4.75c1.09,0,2.1,0.33,2.55,0.61l-0.51,2.33c-0.45-0.3-1.19-0.58-2.1-0.58
		c-1.54,0-2.28,1.04-2.28,2.07c0,1.32,0.68,1.92,2.43,3.03c2.15,1.42,3.01,3.06,3.01,4.88c0,3.06-2.17,5.01-5.24,5.01
		c-1.29,0-2.55-0.35-3.09-0.71L132.25,23.14z"/>
	<path class="st3" d="M141.84,23.14c0.63,0.38,1.74,0.68,2.63,0.68c1.67,0,2.58-0.99,2.58-2.38c0-1.36-0.83-2.15-2.23-3.11
		c-1.9-1.21-3.21-2.91-3.21-4.75c0-2.66,1.8-4.75,4.98-4.75c1.09,0,2.1,0.33,2.55,0.61l-0.51,2.33c-0.45-0.3-1.19-0.58-2.1-0.58
		c-1.54,0-2.28,1.04-2.28,2.07c0,1.32,0.68,1.92,2.43,3.03c2.15,1.42,3.01,3.06,3.01,4.88c0,3.06-2.17,5.01-5.24,5.01
		c-1.29,0-2.55-0.35-3.09-0.71L141.84,23.14z"/>
</g>
</svg>
