<?xml version="1.0" encoding="utf-8"?>
<!-- Generator: Adobe Illustrator 24.3.0, SVG Export Plug-In . SVG Version: 6.00 Build 0)  -->
<svg version="1.1" id="Ebene_1" xmlns="http://www.w3.org/2000/svg" xmlns:xlink="http://www.w3.org/1999/xlink" x="0px" y="0px"
	 viewBox="0 0 150 35" style="enable-background:new 0 0 150 35;" xml:space="preserve">
<style type="text/css">
	.st0{fill:#FFFFFF;}
	.st1{fill:#F7DF1E;}
</style>
<g>
	<path class="st0" d="M48.4,7.9h2.3v11.9c0,4.7-2.3,6.2-5.4,6.2c-0.8,0-1.9-0.2-2.5-0.4l0.3-1.9c0.5,0.2,1.2,0.3,1.9,0.3
		c2.1,0,3.3-0.9,3.3-4.4C48.4,19.7,48.4,7.9,48.4,7.9z"/>
	<path class="st0" d="M61.5,25.7l-0.2-1.6h-0.1c-0.7,1-2.1,1.9-3.9,1.9c-2.6,0-3.9-1.8-3.9-3.7c0-3.1,2.7-4.8,7.7-4.8v-0.3
		c0-1.1-0.3-3-2.9-3c-1.2,0-2.4,0.4-3.3,1l-0.5-1.5c1.1-0.7,2.6-1.1,4.2-1.1c3.9,0,4.9,2.7,4.9,5.2v4.8c0,1.1,0,2.2,0.2,3.1
		L61.5,25.7L61.5,25.7L61.5,25.7z M61.2,19.2c-2.5,0-5.4,0.4-5.4,2.9c0,1.5,1,2.2,2.2,2.2c1.7,0,2.7-1.1,3.1-2.1
		c0.1-0.2,0.1-0.5,0.1-0.7L61.2,19.2L61.2,19.2z"/>
	<path class="st0" d="M67.8,12.9l2.5,7.2c0.4,1.2,0.8,2.2,1,3.3h0.1c0.3-1.1,0.7-2.1,1.1-3.3l2.5-7.2h2.4l-5,12.8h-2.2l-4.9-12.8
		C65.4,12.9,67.8,12.9,67.8,12.9z"/>
	<path class="st0" d="M86.6,25.7l-0.2-1.6h-0.1c-0.7,1-2.1,1.9-3.9,1.9c-2.6,0-3.9-1.8-3.9-3.7c0-3.1,2.7-4.8,7.7-4.8v-0.3
		c0-1.1-0.3-3-2.9-3c-1.2,0-2.4,0.4-3.3,1l-0.5-1.5c1.1-0.7,2.6-1.1,4.2-1.1c3.9,0,4.9,2.7,4.9,5.2v4.8c0,1.1,0,2.2,0.2,3.1
		L86.6,25.7C86.6,25.7,86.6,25.7,86.6,25.7z M86.3,19.2c-2.5,0-5.4,0.4-5.4,2.9c0,1.5,1,2.2,2.2,2.2c1.7,0,2.7-1.1,3.1-2.1
		c0.1-0.2,0.1-0.5,0.1-0.7L86.3,19.2L86.3,19.2z"/>
	<path class="st0" d="M91.9,23.7c1,0.7,2.4,1.2,3.9,1.2c2.6,0,4.3-1.5,4.3-3.7c0-2-1-3.2-3.6-4.2c-2.9-1-4.6-2.5-4.6-4.9
		c0-2.6,2.2-4.5,5.2-4.5c1.7,0,2.9,0.4,3.5,0.8l-0.5,1.1c-0.5-0.3-1.6-0.8-3.1-0.8c-2.9,0-3.8,1.8-3.8,3.2c0,2,1.1,3,3.7,4
		c2.9,1.2,4.5,2.5,4.5,5.2c0,2.6-1.8,4.9-5.7,4.9c-1.5,0-3.3-0.5-4.2-1.2L91.9,23.7z"/>
	<path class="st0" d="M113.6,25.2c-0.6,0.3-1.9,0.8-3.7,0.8c-3.7,0-6.1-2.6-6.1-6.5c0-4,2.7-6.8,6.5-6.8c1.6,0,2.8,0.4,3.3,0.8
		l-0.4,1c-0.6-0.3-1.6-0.7-3-0.7c-3.4,0-5.1,2.6-5.1,5.6c0,3.3,2.1,5.5,5,5.5c1.5,0,2.5-0.4,3.2-0.7L113.6,25.2z"/>
	<path class="st0" d="M116.6,16.9c0-1.3,0-2.6-0.1-3.8h1.2l0,2.6h0c0.6-1.6,1.9-2.8,3.6-2.8c0.2,0,0.3,0,0.5,0V14
		c-0.2,0-0.4,0-0.6,0c-1.7,0-3,1.5-3.3,3.5c0,0.4-0.1,0.8-0.1,1.2v7h-1.3L116.6,16.9L116.6,16.9z"/>
	<path class="st0" d="M126.2,9.4c0,0.6-0.4,1.1-1.1,1.1c-0.6,0-1-0.5-1-1.1c0-0.6,0.4-1.1,1-1.1C125.8,8.3,126.2,8.8,126.2,9.4z
		 M124.6,25.7V13.1h1.2v12.7C125.8,25.7,124.6,25.7,124.6,25.7z"/>
	<path class="st0" d="M130.1,17.1c0-1.6,0-2.8-0.1-4h1.2l0.1,2.4h0c0.9-1.7,2.5-2.7,4.7-2.7c3.2,0,5.4,2.7,5.4,6.4
		c0,4.5-2.7,6.8-5.8,6.8c-1.8,0-3.4-0.8-4.3-2.3h0v7.3h-1.2L130.1,17.1L130.1,17.1z M131.3,20.7c0,0.3,0,0.7,0.1,1
		c0.5,2,2.2,3.2,4.2,3.2c2.9,0,4.6-2.3,4.6-5.7c0-2.8-1.6-5.4-4.5-5.4c-1.8,0-3.6,1.3-4.2,3.4c-0.1,0.3-0.2,0.7-0.2,1.1L131.3,20.7
		L131.3,20.7z"/>
	<path class="st0" d="M146.4,9.4v3.7h3.6v1h-3.6v8.2c0,1.6,0.5,2.6,1.8,2.6c0.7,0,1.1-0.1,1.5-0.2l0.2,1c-0.4,0.2-1,0.3-1.8,0.3
		c-0.9,0-1.7-0.3-2.2-0.9c-0.6-0.7-0.8-1.7-0.8-3v-8H143v-1h2.1V9.8L146.4,9.4z"/>
</g>
<g>
	<rect class="st1" width="34.4" height="34.4"/>
	<path d="M23.1,26.8c0.7,1.1,1.6,2,3.2,2c1.3,0,2.2-0.7,2.2-1.6c0-1.1-0.9-1.5-2.4-2.1l-0.8-0.3c-2.3-1-3.9-2.2-3.9-4.9
		c0-2.4,1.8-4.3,4.7-4.3c2,0,3.5,0.7,4.6,2.6l-2.5,1.6c-0.6-1-1.2-1.4-2.1-1.4c-0.9,0-1.5,0.6-1.5,1.4c0,1,0.6,1.4,2,2l0.8,0.3
		c2.8,1.2,4.3,2.4,4.3,5.1c0,2.9-2.3,4.5-5.4,4.5c-3,0-4.9-1.4-5.9-3.3L23.1,26.8z M11.7,27.1c0.5,0.9,1,1.7,2.1,1.7
		c1.1,0,1.7-0.4,1.7-2v-11h3.2v11c0,3.3-1.9,4.9-4.8,4.9c-2.6,0-4.1-1.3-4.8-3L11.7,27.1z"/>
</g>
</svg>
